# xmcd CD database file
#
# Track frame offsets:
#	150
#	20519
#	39703
#	57781
#	77096
#	95675
#	114022
#	132240
#	144411
#	162265
#	182435
#	200623
#	217539
#	233014
#	248988
#	266905
#	283228
#	302041
#	318998
#	335350
#
# Disc length: 4690 seconds
#
# Revision: 0
# Processed by: cddbd v1.5.2PL0 Copyright (c) Steve Scherf et al.
# Submitted via: CDex 1.70beta2
#
DISCID=16125014
DTITLE=Divers - Latina Caliente CD3
DYEAR=2008
DGENRE=Salsa
TTITLE0=Tito Puente - Oye Como Va
TTITLE1=Celia Cruz and Willie Colon - Usted Abuso
TTITLE2=Roberto Roena - El Que Se Fue
TTITLE3=Willie Colon - Ruben Blades - Pedro Navaja
TTITLE4=Bobby Valentin - Siempre Junto A Ti
TTITLE5=Sonora Poncena - Suena Tu Bongo
TTITLE6=Tipica 73 - Descarga 73
TTITLE7=Gilbert Sextet - El Muerto Se Fue De Rumba
TTITLE8=Willie Colon - El Malo
TTITLE9=Mongo Santamaria - Sofrito
TTITLE10=Joe Cuba - Bang Bang
TTITLE11=Lebron Brothers - Salsa Y Control
TTITLE12=Calle 23 - Manteca De Corojo
TTITLE13=Cienfuegos All Stars - Nadie Se Salva De La Rumba
TTITLE14=Adalberto Alvarez - Leccion De Amor
TTITLE15=Estudiantina Invasora - Azabache
TTITLE16=Baila - La Rosa
TTITLE17=NG La Banda - Los Sitios Enteros
TTITLE18=Los Van Van - Esto Te Pone La Cabaza Lala
TTITLE19=Omara Portuondo - Disco Azucar
EXTD=YEAR: 2008
EXTT0=
EXTT1=
EXTT2=
EXTT3=
EXTT4=
EXTT5=
EXTT6=
EXTT7=
EXTT8=
EXTT9=
EXTT10=
EXTT11=
EXTT12=
EXTT13=
EXTT14=
EXTT15=
EXTT16=
EXTT17=
EXTT18=
EXTT19=
PLAYORDER=
